<svg id="Layer_1" data-name="Layer 1" xmlns="http://www.w3.org/2000/svg" xmlns:xlink="http://www.w3.org/1999/xlink" viewBox="0 0 452.06 566.64"><defs><style>.cls-1{fill:#3e7fb5;}.cls-2{fill:url(#linear-gradient);}.cls-3{opacity:0.5;fill:url(#linear-gradient-2);}.cls-4{fill:#fdca0b;}.cls-5{opacity:0.6;fill:url(#linear-gradient-3);}.cls-6{fill:#fff;}.cls-7{fill:url(#linear-gradient-4);}.cls-8{fill:url(#linear-gradient-5);}.cls-9{fill:#2d5f89;}</style><linearGradient id="linear-gradient" x1="165.47" y1="139.22" x2="216.92" y2="124.56" gradientUnits="userSpaceOnUse"><stop offset="0" stop-color="#fff"/><stop offset="0.09" stop-color="#f6f8f9"/><stop offset="0.25" stop-color="#dee5ea"/><stop offset="0.44" stop-color="#b7c5d1"/><stop offset="0.66" stop-color="#809aaf"/><stop offset="0.91" stop-color="#3c6384"/><stop offset="1" stop-color="#214e73"/></linearGradient><linearGradient id="linear-gradient-2" x1="182.08" y1="182" x2="170.83" y2="138.75" gradientUnits="userSpaceOnUse"><stop offset="0" stop-color="#3e7fb5" stop-opacity="0"/><stop offset="0.07" stop-color="#3773a5" stop-opacity="0.24"/><stop offset="0.17" stop-color="#2e6390" stop-opacity="0.57"/><stop offset="0.27" stop-color="#275880" stop-opacity="0.8"/><stop offset="0.36" stop-color="#225176" stop-opacity="0.95"/><stop offset="0.42" stop-color="#214e73"/><stop offset="0.48" stop-color="#25567d" stop-opacity="0.85"/><stop offset="0.64" stop-color="#306795" stop-opacity="0.48"/><stop offset="0.79" stop-color="#3874a7" stop-opacity="0.22"/><stop offset="0.91" stop-color="#3c7cb1" stop-opacity="0.06"/><stop offset="1" stop-color="#3e7fb5" stop-opacity="0"/></linearGradient><linearGradient id="linear-gradient-3" x1="149.53" y1="142.86" x2="201.33" y2="129.02" gradientUnits="userSpaceOnUse"><stop offset="0" stop-color="#fab816" stop-opacity="0"/><stop offset="1" stop-color="#733c00"/></linearGradient><linearGradient id="linear-gradient-4" x1="238.4" y1="133.05" x2="272.77" y2="123.25" xlink:href="#linear-gradient"/><linearGradient id="linear-gradient-5" x1="293.84" y1="139.22" x2="345.28" y2="124.56" xlink:href="#linear-gradient"/></defs><title>Artboard 23</title><rect class="cls-1" x="4.58" width="447.48" height="279.27"/><polygon class="cls-2" points="174.18 88.38 142.09 187.15 166.96 187.15 199.06 88.38 174.18 88.38"/><polygon class="cls-3" points="174.18 88.38 142.09 187.15 166.96 187.15 199.06 88.38 174.18 88.38"/><path class="cls-4" d="M217.59,145.81l4.1,15.81L126,186.47a26,26,0,0,1-5.84.68,19.69,19.69,0,0,1-14.88-6.27c-5-5.44-6.45-13.26-4-20.93l9.93-30.56-14.1,3.77,3.21-9.73,16-9.74h17.18L130,124.31l.05,0-.06,0L116.81,165c-.63,1.94-.44,3.85.49,4.86,1.21,1.32,3.77.95,4.91.71Zm-98.26-41.37h17.18l5.21-16.06H124.54Z"/><path class="cls-5" d="M217.59,145.81l4.1,15.81L126,186.47a26,26,0,0,1-5.84.68,19.69,19.69,0,0,1-14.88-6.27c-5-5.44-6.45-13.26-4-20.93l9.93-30.56-14.1,3.77,3.21-9.73,16-9.74h17.18L130,124.31l.05,0-.06,0L116.81,165c-.63,1.94-.44,3.85.49,4.86,1.21,1.32,3.77.95,4.91.71Z"/><polygon class="cls-6" points="174.19 88.38 206.29 187.15 231.16 187.15 199.06 88.38 174.19 88.38"/><polygon class="cls-7" points="233.79 179.04 263.25 88.38 238.38 88.38 221.34 140.84 233.79 179.04"/><polygon class="cls-6" points="238.37 88.38 270.46 187.15 295.33 187.15 263.24 88.38 238.37 88.38"/><polygon class="cls-8" points="302.55 88.38 270.46 187.15 295.33 187.15 327.42 88.38 302.55 88.38"/><polygon class="cls-6" points="302.57 88.38 334.66 187.15 359.54 187.15 327.44 88.38 302.57 88.38"/><path class="cls-9" d="M5.38,353.61H18.05V401.5H5.38Z"/><path class="cls-9" d="M71,353.61V401.5H60.56L40.77,376V401.5H28.36V353.61H38.79l19.78,25.52V353.61Z"/><path class="cls-9" d="M86.42,401a25,25,0,0,1-8.32-3.83l4.16-10a25.73,25.73,0,0,0,7,3.42,24.92,24.92,0,0,0,7.81,1.3q7.3,0,7.3-3.9a3.22,3.22,0,0,0-2.08-3,36.66,36.66,0,0,0-6.69-2.09,59.93,59.93,0,0,1-8.45-2.49,14.25,14.25,0,0,1-5.82-4.28,12,12,0,0,1-2.44-7.94,14.46,14.46,0,0,1,2.24-7.9,15.33,15.33,0,0,1,6.69-5.57,26,26,0,0,1,10.92-2,36.05,36.05,0,0,1,8.71,1.06,25.54,25.54,0,0,1,7.55,3.11l-3.91,10.06a24.72,24.72,0,0,0-12.42-3.7c-2.51,0-4.35.4-5.5,1.2a3.64,3.64,0,0,0-1.73,3.11,3.05,3.05,0,0,0,2,2.87,35.53,35.53,0,0,0,6.59,2,57.81,57.81,0,0,1,8.49,2.5,14.51,14.51,0,0,1,5.82,4.24,11.84,11.84,0,0,1,2.46,7.9,14.1,14.1,0,0,1-2.24,7.8,15.46,15.46,0,0,1-6.72,5.57A25.62,25.62,0,0,1,97,402.46,38.78,38.78,0,0,1,86.42,401Z"/><path class="cls-9" d="M132.83,364.35H119.06V353.61H159.2v10.74H145.5V401.5H132.83Z"/><path class="cls-9" d="M193,392.2H174.05l-3.52,9.3H157.6l19.78-47.89h12.49l19.84,47.89H196.52Zm-3.71-10-5.76-15.32-5.76,15.32Z"/><path class="cls-9" d="M257.21,353.61V401.5H246.77L227,376V401.5H214.57V353.61H225l19.78,25.52V353.61Z"/><path class="cls-9" d="M277,364.35H263.22V353.61h40.14v10.74h-13.7V401.5H277Z"/><path class="cls-9" d="M35.4,474.29H16.45l-3.52,9.3H0L19.78,435.7H32.26l19.85,47.89H38.92Zm-3.71-10L25.92,449,20.16,464.3Z"/><path class="cls-9" d="M66,481.37a23,23,0,0,1-8.8-8.86,27.44,27.44,0,0,1,0-25.72,22.92,22.92,0,0,1,8.8-8.86,25.14,25.14,0,0,1,12.64-3.18,25.67,25.67,0,0,1,11.08,2.32,21.52,21.52,0,0,1,8.19,6.71l-8.06,7.8Q85.52,446,79.31,446a12.36,12.36,0,0,0-6.49,1.71,11.47,11.47,0,0,0-4.42,4.82,17.07,17.07,0,0,0,0,14.3,11.53,11.53,0,0,0,4.42,4.82,12.36,12.36,0,0,0,6.49,1.71q6.21,0,10.57-5.61l8.06,7.8a21.5,21.5,0,0,1-8.19,6.7,25.67,25.67,0,0,1-11.08,2.33A25.14,25.14,0,0,1,66,481.37Z"/><path class="cls-9" d="M113.59,481.37a23,23,0,0,1-8.8-8.86,27.44,27.44,0,0,1,0-25.72,22.92,22.92,0,0,1,8.8-8.86,25.18,25.18,0,0,1,12.65-3.18,25.66,25.66,0,0,1,11.07,2.32,21.45,21.45,0,0,1,8.19,6.71l-8.06,7.8c-2.9-3.74-6.43-5.61-10.56-5.61a12.37,12.37,0,0,0-6.5,1.71A11.53,11.53,0,0,0,116,452.5a17.07,17.07,0,0,0,0,14.3,11.59,11.59,0,0,0,4.42,4.82,12.37,12.37,0,0,0,6.5,1.71c4.13,0,7.66-1.87,10.56-5.61l8.06,7.8a21.42,21.42,0,0,1-8.19,6.7,25.66,25.66,0,0,1-11.07,2.33A25.18,25.18,0,0,1,113.59,481.37Z"/><path class="cls-9" d="M188.39,473.12v10.47h-36V435.7h35.14v10.47H165v8.07h19.91v10.13H165v8.75Z"/><path class="cls-9" d="M201.9,483.11a25,25,0,0,1-8.32-3.83l4.16-10a25.65,25.65,0,0,0,7,3.42,24.87,24.87,0,0,0,7.81,1.3q7.29,0,7.29-3.9a3.22,3.22,0,0,0-2.08-3,36.14,36.14,0,0,0-6.69-2.09,60.34,60.34,0,0,1-8.45-2.49,14.25,14.25,0,0,1-5.82-4.28,12.08,12.08,0,0,1-2.44-7.93,14.4,14.4,0,0,1,2.25-7.91,15.21,15.21,0,0,1,6.69-5.57,25.91,25.91,0,0,1,10.91-2.05,36,36,0,0,1,8.71,1.06,25.54,25.54,0,0,1,7.55,3.11L226.54,449a24.71,24.71,0,0,0-12.41-3.7q-3.78,0-5.51,1.2a3.64,3.64,0,0,0-1.73,3.11,3.09,3.09,0,0,0,2.05,2.88,36.39,36.39,0,0,0,6.6,2A58,58,0,0,1,224,457a14.51,14.51,0,0,1,5.82,4.24,11.84,11.84,0,0,1,2.47,7.9,14.11,14.11,0,0,1-2.25,7.8,15.46,15.46,0,0,1-6.72,5.57,25.62,25.62,0,0,1-10.88,2.09A38.78,38.78,0,0,1,201.9,483.11Z"/><path class="cls-9" d="M244.6,483.11a25.18,25.18,0,0,1-8.33-3.83l4.17-10a25.73,25.73,0,0,0,7,3.42,24.92,24.92,0,0,0,7.81,1.3q7.3,0,7.3-3.9a3.22,3.22,0,0,0-2.08-3,36.66,36.66,0,0,0-6.69-2.09,59.93,59.93,0,0,1-8.45-2.49,14.25,14.25,0,0,1-5.82-4.28,12,12,0,0,1-2.44-7.93,14.47,14.47,0,0,1,2.24-7.91A15.33,15.33,0,0,1,246,436.8a26,26,0,0,1,10.92-2.05,36,36,0,0,1,8.7,1.06,25.5,25.5,0,0,1,7.56,3.11L269.24,449a24.77,24.77,0,0,0-12.42-3.7q-3.78,0-5.5,1.2a3.64,3.64,0,0,0-1.73,3.11,3.07,3.07,0,0,0,2,2.88,36.23,36.23,0,0,0,6.59,2,58,58,0,0,1,8.48,2.5,14.54,14.54,0,0,1,5.83,4.24,11.84,11.84,0,0,1,2.46,7.9,14.1,14.1,0,0,1-2.24,7.8,15.46,15.46,0,0,1-6.72,5.57,25.66,25.66,0,0,1-10.88,2.09A38.78,38.78,0,0,1,244.6,483.11Z"/><path class="cls-9" d="M45.83,565.68l-.12-25.38L34.18,561H28.55L17.09,541v24.69H5.38V517.8H15.81l15.75,27.63L46.92,517.8H57.36l.12,47.88Z"/><path class="cls-9" d="M103.7,555.22v10.46h-36V517.8h35.14v10.46H80.27v8.08h19.91v10.12H80.27v8.76Z"/><path class="cls-9" d="M112,517.8h21.19a28.08,28.08,0,0,1,13.06,2.94,21.22,21.22,0,0,1,8.83,8.34,27.09,27.09,0,0,1,0,25.32,21.22,21.22,0,0,1-8.83,8.34,28.08,28.08,0,0,1-13.06,2.94H112Zm20.68,37.07a12.5,12.5,0,0,0,9.25-3.49q3.48-3.48,3.49-9.64T142,532.09a12.54,12.54,0,0,0-9.25-3.49h-8v26.27Z"/><path class="cls-9" d="M166.18,517.8h12.68v47.88H166.18Z"/><path class="cls-9" d="M198.86,563.46a22.85,22.85,0,0,1-8.8-8.86,27.37,27.37,0,0,1,0-25.72,22.85,22.85,0,0,1,8.8-8.86,25.14,25.14,0,0,1,12.64-3.18,25.59,25.59,0,0,1,11.07,2.32,21.65,21.65,0,0,1,8.2,6.71l-8.07,7.8q-4.35-5.61-10.56-5.61a12.39,12.39,0,0,0-6.5,1.71,11.51,11.51,0,0,0-4.41,4.82,17.07,17.07,0,0,0,0,14.3,11.51,11.51,0,0,0,4.41,4.82,12.39,12.39,0,0,0,6.5,1.71q6.21,0,10.56-5.61l8.07,7.8a21.53,21.53,0,0,1-8.2,6.7,25.6,25.6,0,0,1-11.07,2.33A25.14,25.14,0,0,1,198.86,563.46Z"/><path class="cls-9" d="M266.94,556.38H248l-3.52,9.3H231.54l19.78-47.88H263.8l19.84,47.88H270.46Zm-3.72-10-5.76-15.32-5.76,15.32Z"/><path class="cls-9" d="M288.51,517.8h12.67v37.14h21.38v10.74H288.51Z"/><rect class="cls-4" x="4.99" y="353.22" width="12.94" height="12.94"/></svg>