<svg id="Layer_1" data-name="Layer 1" xmlns="http://www.w3.org/2000/svg" xmlns:xlink="http://www.w3.org/1999/xlink" viewBox="0 0 889.58 286.23"><defs><style>.cls-1{fill:#3e7fb5;}.cls-2{fill:url(#linear-gradient);}.cls-3{opacity:0.5;fill:url(#linear-gradient-2);}.cls-4{fill:#fdca0b;}.cls-5{opacity:0.6;fill:url(#linear-gradient-3);}.cls-6{fill:#fff;}.cls-7{fill:url(#linear-gradient-4);}.cls-8{fill:url(#linear-gradient-5);}.cls-9{fill:#2d5f89;}</style><linearGradient id="linear-gradient" x1="164.9" y1="142.68" x2="217.63" y2="127.66" gradientUnits="userSpaceOnUse"><stop offset="0" stop-color="#fff"/><stop offset="0.09" stop-color="#f6f8f9"/><stop offset="0.25" stop-color="#dee5ea"/><stop offset="0.44" stop-color="#b7c5d1"/><stop offset="0.66" stop-color="#809aaf"/><stop offset="0.91" stop-color="#3c6384"/><stop offset="1" stop-color="#214e73"/></linearGradient><linearGradient id="linear-gradient-2" x1="181.93" y1="186.53" x2="170.39" y2="142.21" gradientUnits="userSpaceOnUse"><stop offset="0" stop-color="#3e7fb5" stop-opacity="0"/><stop offset="0.07" stop-color="#3773a5" stop-opacity="0.24"/><stop offset="0.17" stop-color="#2e6390" stop-opacity="0.57"/><stop offset="0.27" stop-color="#275880" stop-opacity="0.8"/><stop offset="0.36" stop-color="#225176" stop-opacity="0.95"/><stop offset="0.42" stop-color="#214e73"/><stop offset="0.48" stop-color="#25567d" stop-opacity="0.85"/><stop offset="0.64" stop-color="#306795" stop-opacity="0.48"/><stop offset="0.79" stop-color="#3874a7" stop-opacity="0.22"/><stop offset="0.91" stop-color="#3c7cb1" stop-opacity="0.06"/><stop offset="1" stop-color="#3e7fb5" stop-opacity="0"/></linearGradient><linearGradient id="linear-gradient-3" x1="148.56" y1="146.42" x2="201.65" y2="132.24" gradientUnits="userSpaceOnUse"><stop offset="0" stop-color="#fab816" stop-opacity="0"/><stop offset="1" stop-color="#733c00"/></linearGradient><linearGradient id="linear-gradient-4" x1="239.65" y1="136.36" x2="274.87" y2="126.32" xlink:href="#linear-gradient"/><linearGradient id="linear-gradient-5" x1="296.47" y1="142.68" x2="349.19" y2="127.66" xlink:href="#linear-gradient"/></defs><title>Artboard 23</title><rect class="cls-1" width="458.62" height="286.23"/><polygon class="cls-2" points="173.83 90.58 140.94 191.81 166.43 191.81 199.32 90.58 173.83 90.58"/><polygon class="cls-3" points="173.83 90.58 140.94 191.81 166.43 191.81 199.32 90.58 173.83 90.58"/><path class="cls-4" d="M218.31,149.44l4.21,16.21L124.4,191.12a27.41,27.41,0,0,1-6,.69,20.2,20.2,0,0,1-15.25-6.43c-5.09-5.57-6.61-13.59-4.06-21.44l10.18-31.33-14.45,3.87,3.29-10,16.39-10h17.61l-3.54,10.88,0,0h-.07L115,169.11c-.65,2-.45,3.94.49,5,1.25,1.36,3.87,1,5,.72ZM117.61,107h17.61l5.34-16.46H123Z"/><path class="cls-5" d="M218.31,149.44l4.21,16.21L124.4,191.12a27.41,27.41,0,0,1-6,.69,20.2,20.2,0,0,1-15.25-6.43c-5.09-5.57-6.61-13.59-4.06-21.44l10.18-31.33-14.45,3.87,3.29-10,16.39-10h17.61l-3.54,10.88,0,0h-.07L115,169.11c-.65,2-.45,3.94.49,5,1.25,1.36,3.87,1,5,.72Z"/><polygon class="cls-6" points="173.84 90.58 206.73 191.81 232.22 191.81 199.33 90.58 173.84 90.58"/><polygon class="cls-7" points="234.92 183.5 265.12 90.58 239.63 90.58 222.16 144.35 234.92 183.5"/><polygon class="cls-6" points="239.61 90.58 272.5 191.81 298 191.81 265.1 90.58 239.61 90.58"/><polygon class="cls-8" points="305.39 90.58 272.5 191.81 297.99 191.81 330.88 90.58 305.39 90.58"/><polygon class="cls-6" points="305.41 90.58 338.31 191.81 363.8 191.81 330.9 90.58 305.41 90.58"/><path class="cls-9" d="M564.49,37.47h13V86.55h-13Z"/><path class="cls-9" d="M631.74,37.47V86.55H621.05L600.77,60.4V86.55H588.05V37.47h10.69L619,63.62V37.47Z"/><path class="cls-9" d="M647.55,86.06A25.55,25.55,0,0,1,639,82.13l4.26-10.24a26.77,26.77,0,0,0,7.15,3.51,25.55,25.55,0,0,0,8,1.33q7.48,0,7.48-4a3.28,3.28,0,0,0-2.13-3.11,37.41,37.41,0,0,0-6.85-2.14,62.58,62.58,0,0,1-8.66-2.56,14.54,14.54,0,0,1-6-4.38,12.35,12.35,0,0,1-2.5-8.14,14.74,14.74,0,0,1,2.3-8.09A15.53,15.53,0,0,1,649,38.59a26.67,26.67,0,0,1,11.19-2.1,37.22,37.22,0,0,1,8.92,1.08,26.5,26.5,0,0,1,7.74,3.19l-4,10.31a25.46,25.46,0,0,0-12.73-3.79q-3.87,0-5.64,1.23a3.73,3.73,0,0,0-1.77,3.19,3.16,3.16,0,0,0,2.1,2.95,36.34,36.34,0,0,0,6.76,2,59.42,59.42,0,0,1,8.69,2.56,14.92,14.92,0,0,1,6,4.35q2.53,3,2.53,8.09a14.52,14.52,0,0,1-2.3,8,15.85,15.85,0,0,1-6.89,5.71,26.22,26.22,0,0,1-11.15,2.14A40,40,0,0,1,647.55,86.06Z"/><path class="cls-9" d="M695.12,48.48H681v-11h41.14v11h-14V86.55h-13Z"/><path class="cls-9" d="M756.79,77H737.37l-3.61,9.54H720.51l20.27-49.08h12.8l20.34,49.08H760.4ZM753,66.78l-5.91-15.71-5.9,15.71Z"/><path class="cls-9" d="M822.6,37.47V86.55H811.9L791.63,60.4V86.55H778.9V37.47h10.69l20.28,26.15V37.47Z"/><path class="cls-9" d="M842.87,48.48H828.76v-11H869.9v11h-14V86.55h-13Z"/><path class="cls-9" d="M595.27,161.15H575.85l-3.61,9.53H559l20.28-49.08h12.79l20.34,49.08H598.87Zm-3.81-10.24-5.91-15.7-5.9,15.7Z"/><path class="cls-9" d="M626.66,168.4a23.43,23.43,0,0,1-9-9.08,28.12,28.12,0,0,1,0-26.36,23.5,23.5,0,0,1,9-9.08,25.83,25.83,0,0,1,13-3.26A26.27,26.27,0,0,1,651,123a22.12,22.12,0,0,1,8.39,6.87l-8.26,8q-4.47-5.75-10.83-5.75a12.78,12.78,0,0,0-6.66,1.75,11.85,11.85,0,0,0-4.52,4.95,17.47,17.47,0,0,0,0,14.65,11.77,11.77,0,0,0,4.52,4.94,12.69,12.69,0,0,0,6.66,1.76q6.36,0,10.83-5.75l8.26,8a22.12,22.12,0,0,1-8.39,6.87,26.26,26.26,0,0,1-11.35,2.38A25.73,25.73,0,0,1,626.66,168.4Z"/><path class="cls-9" d="M675.4,168.4a23.56,23.56,0,0,1-9-9.08,28.12,28.12,0,0,1,0-26.36,23.63,23.63,0,0,1,9-9.08,25.83,25.83,0,0,1,13-3.26A26.27,26.27,0,0,1,699.71,123a22.08,22.08,0,0,1,8.4,6.87l-8.27,8q-4.46-5.75-10.82-5.75a12.78,12.78,0,0,0-6.66,1.75,11.81,11.81,0,0,0-4.53,4.95,17.47,17.47,0,0,0,0,14.65,11.72,11.72,0,0,0,4.53,4.94,12.69,12.69,0,0,0,6.66,1.76q6.36,0,10.82-5.75l8.27,8a22.08,22.08,0,0,1-8.4,6.87,26.26,26.26,0,0,1-11.35,2.38A25.73,25.73,0,0,1,675.4,168.4Z"/><path class="cls-9" d="M752.07,160v10.72H715.19V121.6h36v10.73H728.05v8.27h20.41V151H728.05v9Z"/><path class="cls-9" d="M765.91,170.19a25.7,25.7,0,0,1-8.53-3.93L761.65,156a26.46,26.46,0,0,0,7.15,3.5,25.57,25.57,0,0,0,8,1.34c5,0,7.48-1.34,7.48-4a3.31,3.31,0,0,0-2.13-3.12,37.31,37.31,0,0,0-6.86-2.14,62,62,0,0,1-8.66-2.56,14.54,14.54,0,0,1-6-4.38,12.38,12.38,0,0,1-2.49-8.13,14.79,14.79,0,0,1,2.29-8.1,15.6,15.6,0,0,1,6.86-5.71,26.51,26.51,0,0,1,11.19-2.11,36.74,36.74,0,0,1,8.92,1.09,26.23,26.23,0,0,1,7.74,3.19l-4,10.31a25.39,25.39,0,0,0-12.73-3.79q-3.87,0-5.64,1.23a3.73,3.73,0,0,0-1.77,3.19,3.14,3.14,0,0,0,2.1,2.94,35.58,35.58,0,0,0,6.76,2,61.48,61.48,0,0,1,8.69,2.56,15.06,15.06,0,0,1,6,4.35,12.16,12.16,0,0,1,2.52,8.1,14.47,14.47,0,0,1-2.29,8,15.87,15.87,0,0,1-6.89,5.72,26.37,26.37,0,0,1-11.15,2.13A40,40,0,0,1,765.91,170.19Z"/><path class="cls-9" d="M809.67,170.19a25.7,25.7,0,0,1-8.53-3.93L805.41,156a26.46,26.46,0,0,0,7.15,3.5,25.57,25.57,0,0,0,8,1.34c5,0,7.48-1.34,7.48-4a3.31,3.31,0,0,0-2.13-3.12,37.31,37.31,0,0,0-6.86-2.14,62,62,0,0,1-8.66-2.56,14.54,14.54,0,0,1-6-4.38,12.38,12.38,0,0,1-2.49-8.13,14.79,14.79,0,0,1,2.29-8.1,15.6,15.6,0,0,1,6.86-5.71,26.51,26.51,0,0,1,11.19-2.11,36.74,36.74,0,0,1,8.92,1.09,26.23,26.23,0,0,1,7.74,3.19l-4,10.31a25.39,25.39,0,0,0-12.73-3.79q-3.87,0-5.64,1.23a3.73,3.73,0,0,0-1.77,3.19,3.14,3.14,0,0,0,2.1,2.94,35.58,35.58,0,0,0,6.76,2,61.48,61.48,0,0,1,8.69,2.56,15.06,15.06,0,0,1,6,4.35,12.16,12.16,0,0,1,2.52,8.1,14.47,14.47,0,0,1-2.29,8,15.87,15.87,0,0,1-6.89,5.72,26.37,26.37,0,0,1-11.15,2.13A40,40,0,0,1,809.67,170.19Z"/><path class="cls-9" d="M606,254.82l-.13-26L594,250h-5.78L576.5,229.51v25.31h-12V205.74h10.7l16.14,28.33,15.74-28.33h10.7l.13,49.08Z"/><path class="cls-9" d="M665.27,244.09v10.73H628.4V205.74h36v10.73H641.26v8.27h20.4v10.38h-20.4v9Z"/><path class="cls-9" d="M673.8,205.74h21.71a28.8,28.8,0,0,1,13.39,3,21.72,21.72,0,0,1,9.05,8.55,27.81,27.81,0,0,1,0,25.94,21.78,21.78,0,0,1-9.05,8.55,28.8,28.8,0,0,1-13.39,3H673.8Zm21.19,38a12.81,12.81,0,0,0,9.48-3.58q3.57-3.57,3.57-9.88t-3.57-9.89a12.85,12.85,0,0,0-9.48-3.57h-8.2v26.92Z"/><path class="cls-9" d="M729.3,205.74h13v49.08h-13Z"/><path class="cls-9" d="M762.79,252.54a23.5,23.5,0,0,1-9-9.08,28.12,28.12,0,0,1,0-26.36,23.5,23.5,0,0,1,9-9.08,25.73,25.73,0,0,1,13-3.26,26.26,26.26,0,0,1,11.35,2.38,22.08,22.08,0,0,1,8.4,6.87l-8.27,8q-4.46-5.76-10.82-5.75a12.64,12.64,0,0,0-6.66,1.75,11.84,11.84,0,0,0-4.53,4.94,17.49,17.49,0,0,0,0,14.66,11.84,11.84,0,0,0,4.53,4.94,12.64,12.64,0,0,0,6.66,1.75q6.36,0,10.82-5.75l8.27,8a22,22,0,0,1-8.4,6.88,26.41,26.41,0,0,1-11.35,2.38A25.83,25.83,0,0,1,762.79,252.54Z"/><path class="cls-9" d="M832.57,245.28H813.15l-3.61,9.54H796.29l20.27-49.08h12.79l20.34,49.08H836.17Zm-3.81-10.23-5.9-15.71L817,235.05Z"/><path class="cls-9" d="M854.68,205.74h13v38.07h21.91v11h-34.9Z"/><rect class="cls-4" x="564.1" y="37.06" width="13.27" height="13.27"/></svg>